# Made in Blockbench 5.0.7
mtllib track_normal.mtl

o Track_normal
v 0.842732 0.071584 1
v 0.808588 0.085803 1
v 0.808588 0.071584 1
v 0.818222 0.071584 1
v 0.852366 0.071584 1
v 0.852366 0.085803 1
v 0.800477 0.025803 1
v 0.8604769999999999 0.025803 1
v 0.8604769999999999 0.041289 1
v 0.842732 0.041289 1
v 0.818222 0.041289 1
v 0.800477 0.041289 1
v 0.8604769999999999 0.025803 0
v 0.8604769999999999 0.041289 0
v 0.818222 0.041289 0
v 0.842732 0.041289 0
v 0.800477 0.025803 0
v 0.800477 0.041289 0
v 0.842732 0.071584 0
v 0.818222 0.071584 0
v 0.808588 0.071584 0
v 0.808588 0.085803 0
v 0.852366 0.085803 0
v 0.852366 0.071584 0
v 0.19141200000000003 0.071584 1
v 0.19141200000000003 0.085803 1
v 0.15726799999999996 0.071584 1
v 0.181778 0.071584 1
v 0.14763400000000004 0.085803 1
v 0.14763400000000004 0.071584 1
v 0.13952300000000006 0.041289 1
v 0.13952300000000006 0.025803 1
v 0.181778 0.041289 1
v 0.15726799999999996 0.041289 1
v 0.199523 0.025803 1
v 0.199523 0.041289 1
v 0.13952300000000006 0.025803 0
v 0.13952300000000006 0.041289 0
v 0.199523 0.025803 0
v 0.181778 0.041289 0
v 0.199523 0.041289 0
v 0.15726799999999996 0.041289 0
v 0.14763400000000004 0.071584 0
v 0.14763400000000004 0.085803 0
v 0.181778 0.071584 0
v 0.15726799999999996 0.071584 0
v 0.19141200000000003 0.085803 0
v 0.19141200000000003 0.071584 0
v 0.21213300000000002 -0.025279 0.89
v 0.21213300000000002 0.054721 0.89
v 0.182133 0.054721 0.89
v 0.182133 -0.025279 0.89
v 0.21213300000000002 -0.025279 0.86
v 0.21213300000000002 0.054721 0.86
v 0.182133 -0.025279 0.86
v 0.182133 0.054721 0.86
v 0.817867 0.054721 0.89
v 0.787867 0.054721 0.89
v 0.787867 -0.025279 0.89
v 0.817867 -0.025279 0.89
v 0.787867 0.054721 0.86
v 0.787867 -0.025279 0.86
v 0.817867 0.054721 0.86
v 0.817867 -0.025279 0.86
v 0.21213300000000002 -0.025279 0.64
v 0.21213300000000002 0.054721 0.64
v 0.182133 0.054721 0.64
v 0.182133 -0.025279 0.64
v 0.21213300000000002 -0.025279 0.61
v 0.21213300000000002 0.054721 0.61
v 0.182133 -0.025279 0.61
v 0.182133 0.054721 0.61
v 0.817867 0.054721 0.64
v 0.787867 0.054721 0.64
v 0.787867 -0.025279 0.64
v 0.817867 -0.025279 0.64
v 0.787867 0.054721 0.61
v 0.787867 -0.025279 0.61
v 0.817867 0.054721 0.61
v 0.817867 -0.025279 0.61
v 0.21213300000000002 -0.025279 0.39
v 0.21213300000000002 0.054721 0.39
v 0.182133 0.054721 0.39
v 0.182133 -0.025279 0.39
v 0.21213300000000002 -0.025279 0.36
v 0.21213300000000002 0.054721 0.36
v 0.182133 -0.025279 0.36
v 0.182133 0.054721 0.36
v 0.817867 0.054721 0.39
v 0.787867 0.054721 0.39
v 0.787867 -0.025279 0.39
v 0.817867 -0.025279 0.39
v 0.787867 0.054721 0.36
v 0.787867 -0.025279 0.36
v 0.817867 0.054721 0.36
v 0.817867 -0.025279 0.36
v 0.21213300000000002 -0.025279 0.14
v 0.21213300000000002 0.054721 0.14
v 0.182133 0.054721 0.14
v 0.182133 -0.025279 0.14
v 0.21213300000000002 -0.025279 0.10999999999999999
v 0.21213300000000002 0.054721 0.10999999999999999
v 0.182133 -0.025279 0.10999999999999999
v 0.182133 0.054721 0.10999999999999999
v 0.817867 0.054721 0.14
v 0.787867 0.054721 0.14
v 0.787867 -0.025279 0.14
v 0.817867 -0.025279 0.14
v 0.787867 0.054721 0.10999999999999999
v 0.787867 -0.025279 0.10999999999999999
v 0.817867 0.054721 0.10999999999999999
v 0.817867 -0.025279 0.10999999999999999
v 0.97 -0.03 0.195
v 0.97 0.03 0.195
v 0.030000000000000027 0.03 0.195
v 0.030000000000000027 -0.03 0.195
v 0.97 -0.03 0.05499999999999994
v 0.97 0.03 0.05499999999999994
v 0.030000000000000027 -0.03 0.05499999999999994
v 0.030000000000000027 0.03 0.05499999999999994
v 0.97 -0.03 0.445
v 0.97 0.03 0.445
v 0.030000000000000027 0.03 0.445
v 0.030000000000000027 -0.03 0.445
v 0.97 -0.03 0.305
v 0.97 0.03 0.305
v 0.030000000000000027 -0.03 0.305
v 0.030000000000000027 0.03 0.305
v 0.97 -0.03 0.6950000000000001
v 0.97 0.03 0.6950000000000001
v 0.030000000000000027 0.03 0.6950000000000001
v 0.030000000000000027 -0.03 0.6950000000000001
v 0.97 -0.03 0.5549999999999999
v 0.97 0.03 0.5549999999999999
v 0.030000000000000027 -0.03 0.5549999999999999
v 0.030000000000000027 0.03 0.5549999999999999
v 0.97 -0.03 0.9450000000000001
v 0.97 0.03 0.9450000000000001
v 0.030000000000000027 0.03 0.9450000000000001
v 0.030000000000000027 -0.03 0.9450000000000001
v 0.97 -0.03 0.8049999999999999
v 0.97 0.03 0.8049999999999999
v 0.030000000000000027 -0.03 0.8049999999999999
v 0.030000000000000027 0.03 0.8049999999999999
vt 0.980127 0.10306199999999999
vt 0.949641 0.115757
vt 0.949641 0.10306199999999999
vt 0.958243 0.10306199999999999
vt 0.949641 0.115757
vt 0.980127 0.10306199999999999
vt 0.988729 0.10306199999999999
vt 0.988729 0.115757
vt 0.942399 0.062185999999999964
vt 0.995971 0.062185999999999964
vt 0.995971 0.076013
vt 0.980127 0.076013
vt 0.980127 0.076013
vt 0.958243 0.076013
vt 0.942399 0.076013
vt 0.942399 0.062185999999999964
vt 0.958243 0.10306199999999999
vt 0.958243 0.076013
vt 0.980127 0.076013
vt 0.980127 0.10306199999999999
vt 0 0.06215000000000004
vt 0 0.04812099999999997
vt 0.905875 0.04812099999999997
vt 0.905875 0.06215000000000004
vt 0.980908 0.01424000000000003
vt 0.959024 0.01424000000000003
vt 0.94318 0.01424000000000003
vt 0.94318 0.0004129999999999967
vt 0.94318 0.0004129999999999967
vt 0.996752 0.0004129999999999967
vt 0.996752 0.01424000000000003
vt 0.980908 0.01424000000000003
vt 0.959024 0.04128900000000002
vt 0.980908 0.04128900000000002
vt 0.98951 0.04128900000000002
vt 0.98951 0.05398499999999995
vt 0.98951 0.05398499999999995
vt 0.950422 0.05398499999999995
vt 0.950422 0.04128900000000002
vt 0.959024 0.04128900000000002
vt 0.959024 0.01424000000000003
vt 0.980908 0.01424000000000003
vt 0.980908 0.04128900000000002
vt 0.959024 0.04128900000000002
vt 0 0.04812099999999997
vt 0 0.03409300000000004
vt 0.905875 0.03409300000000004
vt 0.905875 0.04812099999999997
vt 0.0002 0.259595
vt 0.0002 0.21993700000000005
vt 0.906075 0.21993700000000005
vt 0.906075 0.259595
vt 0.905753 0.21044799999999997
vt -0.000122 0.21044799999999997
vt -0.000122 0.156096
vt 0.905753 0.156096
vt 0.905875 0.12120200000000003
vt 0 0.12120200000000003
vt 0 0.09375900000000004
vt 0.905875 0.09375900000000004
vt 0.905875 0.025761000000000034
vt 0 0.025761000000000034
vt 0 0.012881000000000031
vt 0.905875 0.012881000000000031
vt 0.906387 0.33035799999999993
vt 0.000512 0.33035799999999993
vt 0.000512 0.3216300000000001
vt 0.906387 0.3216300000000001
vt 0.0002 0.296828
vt 0.906075 0.296828
vt 0.906075 0.31290299999999993
vt 0.0002 0.31290299999999993
vt 0.905875 0.08959300000000003
vt 0 0.08959300000000003
vt 0 0.06215000000000004
vt 0.905875 0.06215000000000004
vt 0.905875 0.012881000000000031
vt 0 0.012881000000000031
vt 0 0
vt 0.905875 0
vt 0.906387 0.3216300000000001
vt 0.000512 0.3216300000000001
vt 0.000512 0.31290299999999993
vt 0.906387 0.31290299999999993
vt 0.0002 0.281378
vt 0.906075 0.281378
vt 0.906075 0.29745299999999997
vt 0.0002 0.29745299999999997
vt 0.949641 0.10306199999999999
vt 0.949641 0.115757
vt 0.980127 0.10306199999999999
vt 0.958243 0.10306199999999999
vt 0.988729 0.115757
vt 0.988729 0.10306199999999999
vt 0.980127 0.10306199999999999
vt 0.949641 0.115757
vt 0.995971 0.076013
vt 0.995971 0.062185999999999964
vt 0.958243 0.076013
vt 0.980127 0.076013
vt 0.942399 0.062185999999999964
vt 0.942399 0.076013
vt 0.958243 0.076013
vt 0.995971 0.062185999999999964
vt 0.958243 0.076013
vt 0.958243 0.10306199999999999
vt 0.980127 0.10306199999999999
vt 0.980127 0.076013
vt 0.905875 0.04812099999999997
vt 0 0.04812099999999997
vt 0 0.06215000000000004
vt 0.905875 0.06215000000000004
vt 0.996752 0.0004129999999999967
vt 0.94318 0.0004129999999999967
vt 0.980908 0.01424000000000003
vt 0.996752 0.01424000000000003
vt 0.94318 0.01424000000000003
vt 0.959024 0.01424000000000003
vt 0.980908 0.01424000000000003
vt 0.94318 0.0004129999999999967
vt 0.950422 0.04128900000000002
vt 0.950422 0.05398499999999995
vt 0.980908 0.04128900000000002
vt 0.959024 0.04128900000000002
vt 0.98951 0.05398499999999995
vt 0.98951 0.04128900000000002
vt 0.980908 0.04128900000000002
vt 0.950422 0.05398499999999995
vt 0.959024 0.04128900000000002
vt 0.980908 0.04128900000000002
vt 0.980908 0.01424000000000003
vt 0.959024 0.01424000000000003
vt 0.905875 0.03409300000000004
vt 0 0.03409300000000004
vt 0 0.04812099999999997
vt 0.905875 0.04812099999999997
vt 0.906075 0.21993700000000005
vt 0.0002 0.21993700000000005
vt 0.0002 0.259595
vt 0.906075 0.259595
vt -0.000122 0.156096
vt -0.000122 0.21044799999999997
vt 0.905753 0.21044799999999997
vt 0.905753 0.156096
vt 0 0.09375900000000004
vt 0 0.12120200000000003
vt 0.905875 0.12120200000000003
vt 0.905875 0.09375900000000004
vt 0 0.012881000000000031
vt 0 0.025761000000000034
vt 0.905875 0.025761000000000034
vt 0.905875 0.012881000000000031
vt 0.000512 0.3216300000000001
vt 0.000512 0.33035799999999993
vt 0.906387 0.33035799999999993
vt 0.906387 0.3216300000000001
vt 0.906075 0.31290299999999993
vt 0.906075 0.296828
vt 0.0002 0.296828
vt 0.0002 0.31290299999999993
vt 0 0.06215000000000004
vt 0 0.08959300000000003
vt 0.905875 0.08959300000000003
vt 0.905875 0.06215000000000004
vt 0 0
vt 0 0.012881000000000031
vt 0.905875 0.012881000000000031
vt 0.905875 0
vt 0.000512 0.31290299999999993
vt 0.000512 0.3216300000000001
vt 0.906387 0.3216300000000001
vt 0.906387 0.31290299999999993
vt 0.906075 0.29745299999999997
vt 0.906075 0.281378
vt 0.0002 0.281378
vt 0.0002 0.29745299999999997
vt 0.99905 0.18329700000000004
vt 0.99905 0.342604
vt 0.93931 0.342604
vt 0.93931 0.18329700000000004
vt 0.99905 0.18329700000000004
vt 0.99905 0.342604
vt 0.93931 0.342604
vt 0.93931 0.18329700000000004
vt 0.99905 0.18329700000000004
vt 0.99905 0.342604
vt 0.93931 0.342604
vt 0.93931 0.18329700000000004
vt 0.99905 0.18329700000000004
vt 0.99905 0.342604
vt 0.93931 0.342604
vt 0.93931 0.18329700000000004
vt 0.985655 0.13286299999999995
vt 0.985655 0.17943700000000007
vt 0.939081 0.17943700000000007
vt 0.939081 0.13286299999999995
vt 0.93931 0.342604
vt 0.99905 0.342604
vt 0.99905 0.18329700000000004
vt 0.93931 0.18329700000000004
vt 0.93931 0.342604
vt 0.99905 0.342604
vt 0.99905 0.18329700000000004
vt 0.93931 0.18329700000000004
vt 0.93931 0.342604
vt 0.99905 0.342604
vt 0.99905 0.18329700000000004
vt 0.93931 0.18329700000000004
vt 0.93931 0.342604
vt 0.99905 0.342604
vt 0.99905 0.18329700000000004
vt 0.93931 0.18329700000000004
vt 0.939081 0.17943700000000007
vt 0.985655 0.17943700000000007
vt 0.985655 0.13286299999999995
vt 0.939081 0.13286299999999995
vt 0.99905 0.18329700000000004
vt 0.99905 0.342604
vt 0.93931 0.342604
vt 0.93931 0.18329700000000004
vt 0.99905 0.18329700000000004
vt 0.99905 0.342604
vt 0.93931 0.342604
vt 0.93931 0.18329700000000004
vt 0.99905 0.18329700000000004
vt 0.99905 0.342604
vt 0.93931 0.342604
vt 0.93931 0.18329700000000004
vt 0.99905 0.18329700000000004
vt 0.99905 0.342604
vt 0.93931 0.342604
vt 0.93931 0.18329700000000004
vt 0.985655 0.13286299999999995
vt 0.985655 0.17943700000000007
vt 0.939081 0.17943700000000007
vt 0.939081 0.13286299999999995
vt 0.93931 0.342604
vt 0.99905 0.342604
vt 0.99905 0.18329700000000004
vt 0.93931 0.18329700000000004
vt 0.93931 0.342604
vt 0.99905 0.342604
vt 0.99905 0.18329700000000004
vt 0.93931 0.18329700000000004
vt 0.93931 0.342604
vt 0.99905 0.342604
vt 0.99905 0.18329700000000004
vt 0.93931 0.18329700000000004
vt 0.93931 0.342604
vt 0.99905 0.342604
vt 0.99905 0.18329700000000004
vt 0.93931 0.18329700000000004
vt 0.939081 0.17943700000000007
vt 0.985655 0.17943700000000007
vt 0.985655 0.13286299999999995
vt 0.939081 0.13286299999999995
vt 0.99905 0.18329700000000004
vt 0.99905 0.342604
vt 0.93931 0.342604
vt 0.93931 0.18329700000000004
vt 0.99905 0.18329700000000004
vt 0.99905 0.342604
vt 0.93931 0.342604
vt 0.93931 0.18329700000000004
vt 0.99905 0.18329700000000004
vt 0.99905 0.342604
vt 0.93931 0.342604
vt 0.93931 0.18329700000000004
vt 0.99905 0.18329700000000004
vt 0.99905 0.342604
vt 0.93931 0.342604
vt 0.93931 0.18329700000000004
vt 0.985655 0.13286299999999995
vt 0.985655 0.17943700000000007
vt 0.939081 0.17943700000000007
vt 0.939081 0.13286299999999995
vt 0.93931 0.342604
vt 0.99905 0.342604
vt 0.99905 0.18329700000000004
vt 0.93931 0.18329700000000004
vt 0.93931 0.342604
vt 0.99905 0.342604
vt 0.99905 0.18329700000000004
vt 0.93931 0.18329700000000004
vt 0.93931 0.342604
vt 0.99905 0.342604
vt 0.99905 0.18329700000000004
vt 0.93931 0.18329700000000004
vt 0.93931 0.342604
vt 0.99905 0.342604
vt 0.99905 0.18329700000000004
vt 0.93931 0.18329700000000004
vt 0.939081 0.17943700000000007
vt 0.985655 0.17943700000000007
vt 0.985655 0.13286299999999995
vt 0.939081 0.13286299999999995
vt 0.99905 0.18329700000000004
vt 0.99905 0.342604
vt 0.93931 0.342604
vt 0.93931 0.18329700000000004
vt 0.99905 0.18329700000000004
vt 0.99905 0.342604
vt 0.93931 0.342604
vt 0.93931 0.18329700000000004
vt 0.99905 0.18329700000000004
vt 0.99905 0.342604
vt 0.93931 0.342604
vt 0.93931 0.18329700000000004
vt 0.99905 0.18329700000000004
vt 0.99905 0.342604
vt 0.93931 0.342604
vt 0.93931 0.18329700000000004
vt 0.985655 0.13286299999999995
vt 0.985655 0.17943700000000007
vt 0.939081 0.17943700000000007
vt 0.939081 0.13286299999999995
vt 0.93931 0.342604
vt 0.99905 0.342604
vt 0.99905 0.18329700000000004
vt 0.93931 0.18329700000000004
vt 0.93931 0.342604
vt 0.99905 0.342604
vt 0.99905 0.18329700000000004
vt 0.93931 0.18329700000000004
vt 0.93931 0.342604
vt 0.99905 0.342604
vt 0.99905 0.18329700000000004
vt 0.93931 0.18329700000000004
vt 0.93931 0.342604
vt 0.99905 0.342604
vt 0.99905 0.18329700000000004
vt 0.93931 0.18329700000000004
vt 0.939081 0.17943700000000007
vt 0.985655 0.17943700000000007
vt 0.985655 0.13286299999999995
vt 0.939081 0.13286299999999995
vt 0.979692 0.781451
vt 0.979692 0.844034
vt -0.000781 0.844034
vt -0.000781 0.781451
vt 0.146184 0.656284
vt 0.146184 0.718868
vt 0.000156 0.718868
vt 0.000156 0.656284
vt 0.980629 0.718868
vt 0.980629 0.781451
vt 0.000156 0.781451
vt 0.000156 0.718868
vt 0.302823 0.656284
vt 0.302823 0.718868
vt 0.156795 0.718868
vt 0.156795 0.656284
vt 0.999534 0.505675
vt 0.999534 0.654611
vt -0.000466 0.654611
vt -0.000466 0.505675
vt 0.979692 0.781451
vt 0.979692 0.844034
vt -0.000781 0.844034
vt -0.000781 0.781451
vt 0.145247 0.656284
vt 0.145247 0.718868
vt -0.000781 0.718868
vt -0.000781 0.656284
vt 0.979692 0.718868
vt 0.979692 0.781451
vt -0.000781 0.781451
vt -0.000781 0.718868
vt 0.302823 0.656284
vt 0.302823 0.718868
vt 0.156795 0.718868
vt 0.156795 0.656284
vt 1 0.851064
vt 1 1
vt 0 1
vt 0 0.851064
vt 0.979692 0.781451
vt 0.979692 0.844034
vt -0.000781 0.844034
vt -0.000781 0.781451
vt 0.145247 0.656284
vt 0.145247 0.718868
vt -0.000781 0.718868
vt -0.000781 0.656284
vt 0.979692 0.718868
vt 0.979692 0.781451
vt -0.000781 0.781451
vt -0.000781 0.718868
vt 0.302823 0.656284
vt 0.302823 0.718868
vt 0.156795 0.718868
vt 0.156795 0.656284
vt 0.999897 0.349106
vt 0.999897 0.498042
vt -0.000103 0.498042
vt -0.000103 0.349106
vt 0.979692 0.781451
vt 0.979692 0.844034
vt -0.000781 0.844034
vt -0.000781 0.781451
vt 0.145247 0.656284
vt 0.145247 0.718868
vt -0.000781 0.718868
vt -0.000781 0.656284
vt 0.979692 0.718868
vt 0.979692 0.781451
vt -0.000781 0.781451
vt -0.000781 0.718868
vt 0.302823 0.656284
vt 0.302823 0.718868
vt 0.156795 0.718868
vt 0.156795 0.656284
vt 1 0.851064
vt 1 1
vt 0 1
vt 0 0.851064
vt 0.998987 0.850355
vt 0.998987 0.998895
vt 0.001647 0.998895
vt 0.001647 0.850355
vt 0.998987 0.849509
vt 0.998987 0.998049
vt 0.001647 0.998049
vt 0.001647 0.849509
vt 0.997339 0.352016
vt 0.997339 0.500556
vt 0 0.500556
vt 0 0.352016
vt 0.998987 0.504118
vt 0.998987 0.652658
vt 0.001647 0.652658
vt 0.001647 0.504118
vn 0 0 1
vn 0 0 1
vn 0 0 1
vn 0 0 0
vn 0 0 1
vn 1 0 0
vn 0 0 0
vn 0 0 -1
vn 0 0 0
vn 0 0 -1
vn 0 0 -1
vn -1 0 0
vn 0 1 0
vn 0 -1 0
vn -1 0 0
vn -1 0 0
vn 0 -1 0
vn 0 1 0
vn 1 0 0
vn 1 0 0
vn 0 -1 0
vn 0 1 0
vn 0 0 1
vn 0 0 1
vn 0 0 1
vn 0 0 1
vn 0 0 1
vn -1 0 0
vn 0 0 -1
vn 0 0 0
vn 0 0 -1
vn 0 0 -1
vn 0 0 -1
vn 1 0 0
vn 0 1 0
vn 0 -1 0
vn 1 0 0
vn 1 0 0
vn 0 -1 0
vn 0 1 0
vn -1 0 0
vn -1 0 0
vn 0 -1 0
vn 0 1 0
vn 0 0 1
vn 1 0 0
vn 0 0 -1
vn -1 0 0
vn 0 1 0
vn 0 0 1
vn -1 0 0
vn 0 0 -1
vn 1 0 0
vn 0 1 0
vn 0 0 1
vn 1 0 0
vn 0 0 -1
vn -1 0 0
vn 0 1 0
vn 0 0 1
vn -1 0 0
vn 0 0 -1
vn 1 0 0
vn 0 1 0
vn 0 0 1
vn 1 0 0
vn 0 0 -1
vn -1 0 0
vn 0 1 0
vn 0 0 1
vn -1 0 0
vn 0 0 -1
vn 1 0 0
vn 0 1 0
vn 0 0 1
vn 1 0 0
vn 0 0 -1
vn -1 0 0
vn 0 1 0
vn 0 0 1
vn -1 0 0
vn 0 0 -1
vn 1 0 0
vn 0 1 0
vn 0 0 1
vn 1 0 0
vn 0 0 -1
vn -1 0 0
vn 0 1 0
vn 0 0 1
vn 1 0 0
vn 0 0 -1
vn -1 0 0
vn 0 1 0
vn 0 0 1
vn 1 0 0
vn 0 0 -1
vn -1 0 0
vn 0 1 0
vn 0 0 1
vn 1 0 0
vn 0 0 -1
vn -1 0 0
vn 0 1 0
vn 0 -1 0
vn 0 -1 0
vn 0 -1 0
vn 0 -1 0
usemtl m_12d7a884-2702-69cd-4eb0-474ffbe8145d
f 1/1/1 2/2/1 3/3/1 4/4/1
f 2/5/2 1/6/2 5/7/2 6/8/2
f 7/9/3 8/10/3 9/11/3 10/12/3
f 10/13/4 11/14/4 12/15/4 7/16/4
f 4/17/5 11/18/5 10/19/5 1/20/5
f 9/21/6 8/22/6 13/23/6 14/24/6
f 15/25/7 16/26/7 14/27/7 13/28/7
f 13/29/8 17/30/8 18/31/8 15/32/8
f 19/33/9 20/34/9 21/35/9 22/36/9
f 22/37/10 23/38/10 24/39/10 19/40/10
f 16/41/11 15/42/11 20/43/11 19/44/11
f 18/45/12 17/46/12 7/47/12 12/48/12
f 23/49/13 22/50/13 2/51/13 6/52/13
f 13/53/14 8/54/14 7/55/14 17/56/14
f 4/57/15 20/58/15 15/59/15 11/60/15
f 2/61/16 22/62/16 21/63/16 3/64/16
f 20/65/17 4/66/17 3/67/17 21/68/17
f 18/69/18 12/70/18 11/71/18 15/72/18
f 19/73/19 1/74/19 10/75/19 16/76/19
f 23/77/20 6/78/20 5/79/20 24/80/20
f 24/81/21 5/82/21 1/83/21 19/84/21
f 16/85/22 10/86/22 9/87/22 14/88/22
f 25/89/23 26/90/23 27/91/23 28/92/23
f 29/93/24 30/94/24 27/95/24 26/96/24
f 31/97/25 32/98/25 33/99/25 34/100/25
f 35/101/26 36/102/26 33/103/26 32/104/26
f 33/105/27 28/106/27 27/107/27 34/108/27
f 37/109/28 32/110/28 31/111/28 38/112/28
f 39/113/29 37/114/29 40/115/29 41/116/29
f 38/117/30 42/118/30 40/119/30 37/120/30
f 43/121/31 44/122/31 45/123/31 46/124/31
f 47/125/32 48/126/32 45/127/32 44/128/32
f 46/129/33 45/130/33 40/131/33 42/132/33
f 35/133/34 39/134/34 41/135/34 36/136/34
f 26/137/35 47/138/35 44/139/35 29/140/35
f 35/141/36 32/142/36 37/143/36 39/144/36
f 40/145/37 45/146/37 28/147/37 33/148/37
f 48/149/38 47/150/38 26/151/38 25/152/38
f 25/153/39 28/154/39 45/155/39 48/156/39
f 33/157/40 36/158/40 41/159/40 40/160/40
f 34/161/41 27/162/41 46/163/41 42/164/41
f 30/165/42 29/166/42 44/167/42 43/168/42
f 27/169/43 30/170/43 43/171/43 46/172/43
f 31/173/44 34/174/44 42/175/44 38/176/44
f 49/177/45 50/178/45 51/179/45 52/180/45
f 53/181/46 54/182/46 50/183/46 49/184/46
f 55/185/47 56/186/47 54/187/47 53/188/47
f 52/189/48 51/190/48 56/191/48 55/192/48
f 50/193/49 54/194/49 56/195/49 51/196/49
f 57/197/50 58/198/50 59/199/50 60/200/50
f 58/201/51 61/202/51 62/203/51 59/204/51
f 61/205/52 63/206/52 64/207/52 62/208/52
f 63/209/53 57/210/53 60/211/53 64/212/53
f 63/213/54 61/214/54 58/215/54 57/216/54
f 65/217/55 66/218/55 67/219/55 68/220/55
f 69/221/56 70/222/56 66/223/56 65/224/56
f 71/225/57 72/226/57 70/227/57 69/228/57
f 68/229/58 67/230/58 72/231/58 71/232/58
f 66/233/59 70/234/59 72/235/59 67/236/59
f 73/237/60 74/238/60 75/239/60 76/240/60
f 74/241/61 77/242/61 78/243/61 75/244/61
f 77/245/62 79/246/62 80/247/62 78/248/62
f 79/249/63 73/250/63 76/251/63 80/252/63
f 79/253/64 77/254/64 74/255/64 73/256/64
f 81/257/65 82/258/65 83/259/65 84/260/65
f 85/261/66 86/262/66 82/263/66 81/264/66
f 87/265/67 88/266/67 86/267/67 85/268/67
f 84/269/68 83/270/68 88/271/68 87/272/68
f 82/273/69 86/274/69 88/275/69 83/276/69
f 89/277/70 90/278/70 91/279/70 92/280/70
f 90/281/71 93/282/71 94/283/71 91/284/71
f 93/285/72 95/286/72 96/287/72 94/288/72
f 95/289/73 89/290/73 92/291/73 96/292/73
f 95/293/74 93/294/74 90/295/74 89/296/74
f 97/297/75 98/298/75 99/299/75 100/300/75
f 101/301/76 102/302/76 98/303/76 97/304/76
f 103/305/77 104/306/77 102/307/77 101/308/77
f 100/309/78 99/310/78 104/311/78 103/312/78
f 98/313/79 102/314/79 104/315/79 99/316/79
f 105/317/80 106/318/80 107/319/80 108/320/80
f 106/321/81 109/322/81 110/323/81 107/324/81
f 109/325/82 111/326/82 112/327/82 110/328/82
f 111/329/83 105/330/83 108/331/83 112/332/83
f 111/333/84 109/334/84 106/335/84 105/336/84
f 113/337/85 114/338/85 115/339/85 116/340/85
f 117/341/86 118/342/86 114/343/86 113/344/86
f 119/345/87 120/346/87 118/347/87 117/348/87
f 116/349/88 115/350/88 120/351/88 119/352/88
f 114/353/89 118/354/89 120/355/89 115/356/89
f 121/357/90 122/358/90 123/359/90 124/360/90
f 125/361/91 126/362/91 122/363/91 121/364/91
f 127/365/92 128/366/92 126/367/92 125/368/92
f 124/369/93 123/370/93 128/371/93 127/372/93
f 122/373/94 126/374/94 128/375/94 123/376/94
f 129/377/95 130/378/95 131/379/95 132/380/95
f 133/381/96 134/382/96 130/383/96 129/384/96
f 135/385/97 136/386/97 134/387/97 133/388/97
f 132/389/98 131/390/98 136/391/98 135/392/98
f 130/393/99 134/394/99 136/395/99 131/396/99
f 137/397/100 138/398/100 139/399/100 140/400/100
f 141/401/101 142/402/101 138/403/101 137/404/101
f 143/405/102 144/406/102 142/407/102 141/408/102
f 140/409/103 139/410/103 144/411/103 143/412/103
f 138/413/104 142/414/104 144/415/104 139/416/104
f 117/417/105 113/418/105 116/419/105 119/420/105
f 125/421/106 121/422/106 124/423/106 127/424/106
f 133/425/107 129/426/107 132/427/107 135/428/107
f 141/429/108 137/430/108 140/431/108 143/432/108